<svg xmlns="http://www.w3.org/2000/svg" width="797.777" height="379.639" viewBox="0 0 797.777 379.639"><g transform="translate(0 -0.361)"><rect width="797.777" height="379.639" rx="15" transform="translate(0 0.361)" fill="#17394c" opacity="0"/><g transform="translate(367.366 58.514)"><g transform="translate(102.511 0)" fill="#fe0000" stroke="red" stroke-width="4"><circle cx="15.438" cy="15.438" r="15.438" stroke="none"/><circle cx="15.438" cy="15.438" r="13.438" fill="none"/></g><g transform="translate(266.775 206.256)" fill="#00b19c" stroke="#00b19c" stroke-width="4"><circle cx="17.909" cy="17.909" r="17.909" stroke="none"/><circle cx="17.909" cy="17.909" r="15.909" fill="none"/></g><line y1="77" x2="57" transform="translate(46.022 35.348)" fill="none" stroke="#2699fb" stroke-width="2"/><line x2="183" y2="70" transform="translate(53.022 142.348)" fill="none" stroke="#2699fb" stroke-width="2"/><path d="M204.324,56.621,0,0" transform="translate(-193.478 67.143)" fill="none" stroke="#2699fb" stroke-width="2"/><line x1="106" y2="86" transform="translate(-93.978 142.348)" fill="none" stroke="#2699fb" stroke-width="2"/><g transform="translate(0 102.511)" fill="#2c8dff" stroke="#2c8dff" stroke-width="4"><circle cx="30.259" cy="30.259" r="30.259" stroke="none"/><circle cx="30.259" cy="30.259" r="28.259" fill="none"/></g><g transform="translate(105.815 23.348) rotate(45)" fill="#2699fb"><path d="M 13.12947845458984 11.5 L 0.8705216646194458 11.5 L 7 0.9923228621482849 L 13.12947845458984 11.5 Z" stroke="none"/><path d="M 7 1.984635353088379 L 1.741037368774414 11 L 12.25896263122559 11 L 7 1.984635353088379 M 7 0 L 14 12 L 0 12 L 7 0 Z" stroke="none" fill="#2699fb"/></g><g transform="translate(-193.478 75.662) rotate(-72)" fill="#2699fb"><path d="M 13.12947845458984 11.5 L 0.8705216646194458 11.5 L 7 0.9923228621482849 L 13.12947845458984 11.5 Z" stroke="none"/><path d="M 7 1.984635353088379 L 1.741037368774414 11 L 12.25896263122559 11 L 7 1.984635353088379 M 7 0 L 14 12 L 0 12 L 7 0 Z" stroke="none" fill="#2699fb"/></g><g transform="translate(-99.63 216.756) rotate(-15)" fill="#2699fb"><path d="M 13.12947845458984 11.5 L 0.8705216646194458 11.5 L 7 0.9923228621482849 L 13.12947845458984 11.5 Z" stroke="none"/><path d="M 7 1.984635353088379 L 1.741037368774414 11 L 12.25896263122559 11 L 7 1.984635353088379 M 7 0 L 14 12 L 0 12 L 7 0 Z" stroke="none" fill="#2699fb"/></g><g transform="translate(244.022 206.953) rotate(105)" fill="#2699fb"><path d="M 13.12947845458984 11.5 L 0.8705216646194458 11.5 L 7 0.9923228621482849 L 13.12947845458984 11.5 Z" stroke="none"/><path d="M 7 1.984635353088379 L 1.741037368774414 11 L 12.25896263122559 11 L 7 1.984635353088379 M 7 0 L 14 12 L 0 12 L 7 0 Z" stroke="none" fill="#2699fb"/></g><g transform="translate(-5.978 168.783)"><g transform="translate(0 0.001)" fill="#fff" stroke="rgba(23,57,76,0.27)" stroke-width="2"><rect width="125" height="64.06" rx="13" stroke="none"/><rect x="1" y="1" width="123" height="62.06" rx="12" fill="none"/></g><g transform="translate(-9 17.065)"><g transform="translate(24.703)"><text transform="translate(0 13)" fill="#242120" stroke="rgba(0,0,0,0)" stroke-width="1" font-size="14" font-family="Arial-BoldMT, Arial" font-weight="700"><tspan x="0" y="0">NewYorkPost</tspan></text><text transform="translate(0 29)" fill="#242120" stroke="rgba(0,0,0,0)" stroke-width="1" font-size="14" font-family="ArialMT, Arial"><tspan x="0" y="0">453K Posts</tspan></text></g></g></g><rect width="21" height="21" rx="6" transform="translate(-214.478 51.848)" fill="rgba(23,57,76,0.51)"/><rect width="20.996" height="20.996" rx="6" transform="translate(-115.283 228.051)" fill="rgba(23,57,76,0.51)"/></g></g></svg>